<svg xmlns="http://www.w3.org/2000/svg" version="1.1" xmlns:xlink="http://www.w3.org/1999/xlink" xmlns:svgjs="http://svgjs.com/svgjs" width="1920" height="1080" preserveAspectRatio="none" viewBox="0 0 1920 1080"><g mask="url(&quot;#SvgjsMask1057&quot;)" fill="none"><rect width="1920" height="1080" x="0" y="0" fill="rgba(10, 88, 202, 1)"></rect><path d="M0,922.467C172.148,941.196,341.516,849.243,474.492,738.323C599.075,634.405,668.356,481.856,714.638,326.364C756.449,185.893,743.647,41.126,725.29,-104.281C706.626,-252.12,693.095,-404.351,607.031,-525.996C516.351,-654.166,387.297,-762.644,234.364,-798.171C84.534,-832.978,-63.571,-762.356,-210.19,-715.842C-353.622,-670.339,-502.958,-634.094,-611.465,-529.837C-725.631,-420.143,-795.477,-273.777,-830.883,-119.463C-868.435,44.204,-899.712,226.79,-818.833,373.949C-739.076,519.066,-550.051,549.667,-412.476,641.825C-271.456,736.291,-168.74,904.109,0,922.467" fill="#094cae"></path><path d="M1920 1918.568C2073.647 1894.973 2134.6440000000002 1700.8780000000002 2270.73 1625.7469999999998 2422.169 1542.1390000000001 2648.487 1598.7649999999999 2751.277 1459.6309999999999 2852.574 1322.518 2818.661 1120.029 2763.522 958.72 2712.821 810.394 2559.95 732.7819999999999 2461.21 611.038 2358.0280000000002 483.817 2314.575 305.03499999999997 2170.358 227.361 2015.173 143.77999999999997 1810.187 93.55499999999995 1654.7649999999999 176.69399999999996 1498.327 260.37699999999995 1494.7730000000001 481.34900000000005 1407.154 635.617 1340.165 753.563 1215.438 841.733 1200.478 976.548 1185.6570000000002 1110.11 1280.116 1224.809 1327.833 1350.434 1379.512 1486.49 1387.441 1644.5030000000002 1492.462 1745.262 1605.72 1853.924 1764.864 1942.392 1920 1918.568" fill="#0b64e6"></path></g><defs><mask id="SvgjsMask1057"><rect width="1920" height="1080" fill="#ffffff"></rect></mask></defs></svg>